<svg xmlns="http://www.w3.org/2000/svg" xmlns:xlink="http://www.w3.org/1999/xlink" viewBox="0 0 24 24" version="1.1" x="0px" y="0px"><title>Bear</title><desc>Created with Sketch.</desc><g stroke="none" stroke-width="1" fill="none" fill-rule="evenodd"><path d="M8.13507518,15.1514766 C8.27181159,14.4770289 8.47094381,13.9485119 8.77248713,13.3594788 C8.82747168,13.2520723 9.00850841,12.910766 9.03631516,12.8570956 C9.27535575,12.3957185 9.40269581,12.0529934 9.46120609,11.6202505 C9.44911854,11.6195392 9.43686404,11.6187937 9.42419434,11.6180018 C8.67914345,11.5714309 8.17308323,11.4232688 7.76867597,11.0188616 C6.72074132,9.97092693 6.3695806,9.17205579 6.66375604,8.42126247 C6.76856698,8.15376442 6.97890258,7.86639811 7.2947455,7.51725148 C7.37958369,7.42346761 7.47146689,7.32604135 7.57351462,7.22108727 C7.70833165,7.08243062 8.11651438,6.67678803 8.14395123,6.64895973 C8.09483031,6.51485195 8.02536588,6.38910178 7.94625354,6.25724788 C7.72414381,5.88706499 6.71875845,4.4795255 6.58397485,4.2773501 C6.27696243,3.81683146 6.22143212,3.28668287 6.37086928,2.81574406 C6.35665455,2.79569199 6.34156286,2.77540573 6.32559422,2.75488527 C6.10652761,2.4733744 5.77645805,2.5103941 5.86193505,2.31840962 C5.91495783,2.19931849 6.24311243,2.25527141 6.5600395,2.41043059 C6.612477,2.3276917 6.67219803,2.24868866 6.73885616,2.17438107 C6.71880662,2.15097315 6.69730264,2.12733612 6.67434423,2.10346997 C6.42705179,1.84639993 6.10266,1.9177185 6.1676009,1.71785095 C6.21829875,1.56181903 6.73135865,1.63596267 7.12330472,1.84960716 C7.14488637,1.8359072 7.16684595,1.82257983 7.18917843,1.80963894 C7.24806587,1.77551573 7.30811585,1.7447231 7.36921121,1.71726036 C7.14540523,1.44648971 6.82160825,1.487169 6.90310099,1.29518414 C6.97165524,1.13368044 7.54404106,1.28050538 7.91901353,1.56298376 C8.69898151,1.46472985 9.5775273,1.82932815 10.3625019,2.65562754 C10.6436919,2.9516207 10.9106283,3.28556737 11.1625171,3.65325074 C11.3449848,3.51776969 11.5592875,3.4227477 11.792156,3.38145391 C11.7850599,3.16244679 11.8211772,2.94525471 11.8965388,2.74087095 C11.6732328,2.45389101 11.3431632,2.49091071 11.4286402,2.29892623 C11.479367,2.18499205 11.7819137,2.23127045 12.0855335,2.37135508 C12.1431394,2.28555476 12.208751,2.20406041 12.2819645,2.12799045 C12.2688821,2.11341007 12.2552437,2.09874212 12.2410494,2.08398658 C11.9937569,1.82691654 11.6693652,1.89823511 11.7343061,1.69836756 C11.7842029,1.54480083 12.2819673,1.61419391 12.6713441,1.82010233 C12.7675795,1.76420829 12.8480411,1.72468126 12.930287,1.69105618 C12.706729,1.42766971 12.3889942,1.46608186 12.4698061,1.27570075 C12.5392421,1.11211981 13.1255534,1.26484987 13.5000877,1.55446688 C14.2594923,1.49043776 15.10461,1.85783667 15.8625019,2.65562754 C17.7061211,4.59630367 19,8.43260732 19,11 L19,18 C19,19.3952068 18.4961161,20.496621 17.5,21.2571727 L17.5,22 C17.5,22.2761424 17.2761424,22.5 17,22.5 L13.5,22.5 C13.2238576,22.5 13,22.2761424 13,22 C13,21.5132451 13.1809243,20.9639317 13.4891694,20.5643218 C13.4014418,20.4809859 13.3185048,20.3877719 13.2407925,20.286334 C13.1143215,20.4541794 12.9265846,20.6991388 12.811337,20.8270891 C12.6632861,20.9914582 12.5081505,21.1371725 12.3405746,21.26396 L12.3405746,22 C12.3405746,22.2761424 12.116717,22.5 11.8405746,22.5 L8.3657856,22.5 C8.08964322,22.5 7.8657856,22.2761424 7.8657856,22 C7.8657856,21.3521108 7.99139751,20.9068055 8.41730007,20.5228305 C7.65261741,19.842549 7.3657856,18.8398943 7.3657856,17.6369154 C7.3657856,16.7628968 7.605603,15.9623934 8.09856407,15.2009986 C8.109864,15.1835455 8.12206813,15.1670309 8.13507518,15.1514766 Z M8.37514571,17.9701841 C8.42958533,18.9021604 8.72641967,19.5989151 9.39384242,20.0007026 C9.56686887,20.0105868 9.72993576,20.1102663 9.81299919,20.2763932 C9.93360626,20.5176073 9.84094105,20.8097032 9.60647587,20.9382638 C9.56849823,20.9649441 9.52711179,20.9861029 9.48365576,21.0012923 C9.15261427,21.1750169 8.99616318,21.3052397 8.92410557,21.5 L11.3405746,21.5 L11.3405746,21 C11.3405746,20.82517 11.4318915,20.6630376 11.5814009,20.572415 C11.727651,20.4837678 11.8640817,20.3715067 11.9966722,20.2345863 C10.3527005,20.2411995 8.99521092,19.3395235 8.37514571,17.9701841 Z M12.684634,19.1650555 C12.5650195,18.7716308 12.5,18.3521073 12.5,17.9461966 C12.5,16.6424555 13.1452195,15.5030894 14.3144095,15.0357197 C14.5708245,14.9332209 14.8617815,15.0579946 14.9642803,15.3144095 C15.0667791,15.5708245 14.9420054,15.8617815 14.6855905,15.9642803 C13.9288624,16.2667732 13.5,17.0240833 13.5,17.9461966 C13.5,18.8694897 14.0127856,19.9152943 14.4438507,20.001477 C14.4624401,20.0004965 14.4811575,20 14.5,20 C14.7761424,20 15,20.2238576 15,20.5 C15,20.7833299 14.7761424,21.0071875 14.5,21.0071875 C14.3563896,21.0462158 14.2110026,21.2551067 14.1119011,21.5 L16.5,21.5 L16.5,21 C16.5,20.8328234 16.5835506,20.6767077 16.7226499,20.5839749 C17.5790006,20.0130744 18,19.1710756 18,18 L18,11 C18,8.67250245 16.7894631,5.08330472 15.1374981,3.34437246 C14.3917794,2.55939554 13.6782224,2.39228199 13.19055,2.67487099 C12.7993875,2.90153598 12.6737314,3.35920935 12.9028276,3.70380763 C13.961815,5.14405189 14.5750284,6.55816069 14.7323141,7.94585037 C14.7634139,8.22023588 14.5661919,8.4678807 14.2918064,8.49898054 C14.0174209,8.53008038 13.7697761,8.33285837 13.7386762,8.05847285 C13.6051596,6.88049178 13.0790052,5.65089601 12.138146,4.35161135 C12.1113658,4.3560473 12.0838671,4.35835507 12.0558293,4.35835507 C11.7796869,4.35835507 11.5558293,4.5822127 11.5558293,4.85835507 C11.5558293,4.87989535 11.5571627,4.90114143 11.5597943,4.92205169 C11.5918595,5.17682761 11.425719,5.41447198 11.175425,5.47184672 C11.1499996,5.4777948 11.1499996,5.4777948 11.1249253,5.48414221 C11.0571997,5.50161773 10.9892597,5.52338258 10.9210549,5.54938149 C10.6682032,5.64576568 10.3845564,5.52350207 10.281013,5.27349674 C10.2041912,5.08801057 10.0228914,4.96455569 9.81867288,4.96455569 C9.5425305,4.96455569 9.31867288,5.18841332 9.31867288,5.46455569 C9.31867288,5.6162209 9.3859608,5.75581822 9.5009366,5.85065389 C9.72343722,6.03417944 9.74494413,6.36738338 9.54788307,6.57798987 C9.40684818,6.72871911 8.94677353,7.25902109 8.85604877,7.35104027 C8.82274431,7.3848199 8.41796472,7.78708053 8.29047865,7.91819743 C8.19627025,8.01508892 8.11242207,8.10399543 8.03633585,8.18810447 C7.79696445,8.45271613 7.6430734,8.66296634 7.59483597,8.78607771 C7.48334711,9.07061911 7.67841446,9.51438651 8.47578275,10.3117548 C8.66324051,10.4992126 8.96407461,10.5872895 9.48657948,10.6199496 C9.58147292,10.6258811 9.65335223,10.6290342 9.83672424,10.6360198 C10.6457621,10.6668435 11.4754744,10.6668435 12.0283845,10.6364486 C12.3041105,10.6212912 12.5399181,10.8325239 12.5550755,11.10825 C12.5702329,11.383976 12.3590002,11.6197836 12.0832742,11.634941 C11.6518658,11.6586566 11.0732783,11.6649458 10.4647207,11.6539638 C10.3965259,12.2585079 10.2305853,12.7258009 9.92422063,13.3171216 C9.89298145,13.377417 9.71350119,13.7157888 9.66262647,13.8151673 C9.35920113,14.4078767 9.18172946,14.9103701 9.06312275,15.6353787 C8.69188041,17.9046758 10.4179583,19.6018385 12.684634,19.1650555 Z M9.63749813,3.34437246 C8.8917794,2.55939554 8.17822237,2.39228199 7.69055005,2.67487099 C7.29938746,2.90153598 7.17373145,3.35920935 7.41602515,3.7226499 C7.49331043,3.83857783 7.98034261,4.52296723 8.3670849,5.08509499 C8.53514721,4.44039935 9.12134042,3.96455569 9.81867288,3.96455569 C9.94646196,3.96455569 10.0712687,3.98068873 10.1908647,4.01127683 C10.0127343,3.76787176 9.82803018,3.54493503 9.63749813,3.34437246 Z M8.04440362,8.80182732 C8.22866292,8.61920941 8.63105159,8.63587859 8.78562127,8.80182732 C8.94019096,8.96777606 8.55468614,9.27343153 8.42775578,9.27343153 C8.30082542,9.27343153 7.86014432,8.98444524 8.04440362,8.80182732 Z M11.25,7.5 C11.1119288,7.5 11,7.38807119 11,7.25 C11,7.11192881 11.1119288,7 11.25,7 C11.3880712,7 11.5,7.11192881 11.5,7.25 C11.5,7.38807119 11.3880712,7.5 11.25,7.5 Z" fill="#000000" fill-rule="nonzero"></path></g></svg>